<svg width="10" height="10" viewBox="0 0 10 10" fill="none" xmlns="http://www.w3.org/2000/svg">
<g clip-path="url(#clip0_67_445)">
<path d="M3.76667 8.97492C4.16667 9.09575 4.57084 9.16659 5 9.16659C6.10507 9.16659 7.16488 8.7276 7.94628 7.9462C8.72768 7.1648 9.16667 6.10499 9.16667 4.99992C9.16667 4.45274 9.0589 3.91093 8.8495 3.4054C8.64011 2.89988 8.33319 2.44055 7.94628 2.05364C7.55937 1.66673 7.10004 1.35982 6.59452 1.15042C6.08899 0.941026 5.54718 0.833252 5 0.833252C4.45283 0.833252 3.91101 0.941026 3.40549 1.15042C2.89996 1.35982 2.44064 1.66673 2.05372 2.05364C1.27232 2.83504 0.833336 3.89485 0.833336 4.99992C0.833336 6.77075 1.94584 8.29159 3.51667 8.89159C3.47917 8.56659 3.44167 8.02908 3.51667 7.65825L3.99584 5.59992C3.99584 5.59992 3.875 5.35825 3.875 4.97492C3.875 4.39992 4.23334 3.97075 4.64167 3.97075C5 3.97075 5.16667 4.23325 5.16667 4.57075C5.16667 4.92909 4.92917 5.44159 4.80834 5.93325C4.7375 6.34159 5.025 6.69992 5.44167 6.69992C6.18334 6.69992 6.75834 5.90825 6.75834 4.79159C6.75834 3.79159 6.04167 3.10825 5.0125 3.10825C3.8375 3.10825 3.14584 3.98325 3.14584 4.90409C3.14584 5.26242 3.2625 5.62492 3.45417 5.86242C3.49167 5.88742 3.49167 5.92075 3.47917 5.98325L3.35834 6.43742C3.35834 6.50825 3.3125 6.53325 3.24167 6.48325C2.70834 6.24992 2.4 5.49159 2.4 4.87909C2.4 3.56242 3.33334 2.36659 5.13334 2.36659C6.56667 2.36659 7.68334 3.39575 7.68334 4.76242C7.68334 6.19575 6.79584 7.34575 5.525 7.34575C5.12084 7.34575 4.725 7.12909 4.58334 6.87492L4.30417 7.86242C4.20834 8.22075 3.94584 8.69992 3.76667 8.98742V8.97492Z" fill="white"/>
</g>
<defs>
<clipPath id="clip0_67_445">
<rect width="10" height="10" fill="white"/>
</clipPath>
</defs>
</svg>
