<svg width="10" height="10" viewBox="0 0 10 10" fill="none" xmlns="http://www.w3.org/2000/svg">
<g clip-path="url(#clip0_67_443)">
<path d="M3.25 0.833252H6.75C8.08333 0.833252 9.16667 1.91659 9.16667 3.24992V6.74992C9.16667 7.39086 8.91205 8.00555 8.45884 8.45876C8.00563 8.91197 7.39094 9.16659 6.75 9.16659H3.25C1.91667 9.16659 0.833333 8.08325 0.833333 6.74992V3.24992C0.833333 2.60898 1.08795 1.99429 1.54116 1.54108C1.99437 1.08786 2.60906 0.833252 3.25 0.833252ZM3.16667 1.66659C2.76884 1.66659 2.38731 1.82462 2.10601 2.10593C1.8247 2.38723 1.66667 2.76876 1.66667 3.16659V6.83325C1.66667 7.66242 2.3375 8.33325 3.16667 8.33325H6.83333C7.23116 8.33325 7.61269 8.17522 7.89399 7.89391C8.1753 7.61261 8.33333 7.23108 8.33333 6.83325V3.16659C8.33333 2.33742 7.6625 1.66659 6.83333 1.66659H3.16667ZM7.1875 2.29159C7.32563 2.29159 7.45811 2.34646 7.55578 2.44413C7.65346 2.54181 7.70833 2.67428 7.70833 2.81242C7.70833 2.95055 7.65346 3.08303 7.55578 3.1807C7.45811 3.27838 7.32563 3.33325 7.1875 3.33325C7.04937 3.33325 6.91689 3.27838 6.81921 3.1807C6.72154 3.08303 6.66667 2.95055 6.66667 2.81242C6.66667 2.67428 6.72154 2.54181 6.81921 2.44413C6.91689 2.34646 7.04937 2.29159 7.1875 2.29159ZM5 2.91659C5.55253 2.91659 6.08244 3.13608 6.47314 3.52678C6.86384 3.91748 7.08333 4.44738 7.08333 4.99992C7.08333 5.55245 6.86384 6.08236 6.47314 6.47306C6.08244 6.86376 5.55253 7.08325 5 7.08325C4.44747 7.08325 3.91756 6.86376 3.52686 6.47306C3.13616 6.08236 2.91667 5.55245 2.91667 4.99992C2.91667 4.44738 3.13616 3.91748 3.52686 3.52678C3.91756 3.13608 4.44747 2.91659 5 2.91659ZM5 3.74992C4.66848 3.74992 4.35054 3.88161 4.11612 4.11603C3.8817 4.35046 3.75 4.6684 3.75 4.99992C3.75 5.33144 3.8817 5.64938 4.11612 5.8838C4.35054 6.11822 4.66848 6.24992 5 6.24992C5.33152 6.24992 5.64946 6.11822 5.88388 5.8838C6.1183 5.64938 6.25 5.33144 6.25 4.99992C6.25 4.6684 6.1183 4.35046 5.88388 4.11603C5.64946 3.88161 5.33152 3.74992 5 3.74992Z" fill="white"/>
</g>
<defs>
<clipPath id="clip0_67_443">
<rect width="10" height="10" fill="white"/>
</clipPath>
</defs>
</svg>
